<svg id="Capa_1" data-name="Capa 1" xmlns="http://www.w3.org/2000/svg" viewBox="0 0 749.63 532.59"><defs><style>.cls-1{fill:#ff775b;}.cls-2{fill:#342e29;}.cls-3{fill:#31b18c;}</style></defs><path class="cls-1" d="M133.62,138.59c.68-9.88-.45-18.65.13-27.34,1-14.79-.84-29.8,2.61-44.36,2.08-8.75,2.65-17.77,5.32-26.38.89-2.87,2.12-3.85,5.6-3.6,10,.73,16.78,7.34,23.93,12.84,9.39,7.23,18.58,14.85,26.31,24,6.57,7.74,12.9,15.68,19.28,23.58,5.17,6.41,11.24,12,17,17.81,2.84,2.88,4.93,6.76,8,8.9,3.86,2.67,6.56,6.24,10,9.22a105.32,105.32,0,0,1,14.1,15c1.45,1.88,3.49,3.06,4.73,5.14,1.14,1.91,1.19,3-1.21,3.09-7.82.41-15.39,2.47-23.12,3.45-33.16,4.17-64.4,17.2-93.5,33.19-4.27,2.35-6.25,1.09-7-3.79-1.26-8.59-5.07-16.39-7.35-24.67C136,155.67,133.5,146.81,133.62,138.59Z"/><path class="cls-1" d="M515.66,116.09c5-5.94,9.8-12.08,15.13-17.75,3.63-3.86,8-7.14,12.1-10.54,9.09-7.46,18.53-14.46,28.29-21.16C579.6,60.85,589,57.9,598.3,54.57c2.61-.93,5.35-1.29,7.88-2.79,2.34-1.38,4.42-1.1,6.09,2.16,3.37,6.62,4.17,13.57,4.49,20.66.38,8.4,1.2,16.78,1.31,25.21.14,10.57-1,21.08-1.11,31.63-.09,6.56-1.34,13-1.42,19.6a92.85,92.85,0,0,1-.84,10.19c-.93,7.36-2.09,14.69-3.14,22-.12.86-.12,1.74-.31,2.59-1.51,7-1.91,7-8.11,2.95C594.26,183,584.5,178.53,575.45,173a92.26,92.26,0,0,0-27.69-10.88c-4.66-1.06-9.28-2.26-13.94-3.35-3.86-.9-8,.07-11.1-2.88-1.64-1.55,1.51,4-.7,3.34s-3.94.64-6.28,0-9.76-2.5-12.57-3c-2-.37-13.05.35-13.62-2-.39-1.63-13.62,2-3.14-11,2-2.49,6.62-10.12,17.81-19,4-3.15,7.25-4.24,10.87-7.61Z"/><path class="cls-2" d="M600.65,29.26q5.31-2.6,10.71-5c3.64-1.62,7.89-3.18,11.46-1.42,2.52,1.24,4,3.84,5.33,6.32,30.27,57.3,32,128.84,4.48,187.52-1,2.19-2.21,4.49-4.34,5.65-6.13,3.32-11.68-5-14.81-11.19C605,194.26,588.56,182.53,571,175.61s-36.43-9.65-55-12.83c-43.77-7.49-87.36-17.82-131.76-18.65-51-.95-101.37,10.68-151.07,22.35-34.64,8.14-71.94,18-94.1,45.81-2.76,3.46-5.57,7.4-9.85,8.54-5,1.34-10.38-1.9-13.12-6.32s-3.46-9.76-4.06-14.93a674.58,674.58,0,0,1-3.56-112.16C109.19,73.15,107.52.34,129.66,0c3.25,0,6.27,1.52,9.12,3.09a413.19,413.19,0,0,1,137,121.8c2.33,3.26,5,6.81,8.89,7.63,2.79.58,5.64-.36,8.34-1.26a296.76,296.76,0,0,1,176.22-2.68c2,.59,4.08,1.22,6.14.86,3.21-.56,5.5-3.32,7.54-5.86A346.89,346.89,0,0,1,600.65,29.26ZM508,130.12c-1.45-.05-2.3,1-3,1.94-3.74,5.15-7.39,10.38-11.11,15.55-2,2.82-.95,3.8,2.12,4.23,10,1.4,20,3,29.94,4.46,8.44,1.39,16.67,3.84,25,5.82A85.67,85.67,0,0,1,577.38,173c8.64,5.53,18,10,26.44,15.81,5.92,4.06,6.29,4,7.74-2.95.18-.85.18-1.73.3-2.59,1-7.35,2.1-14.68,3-22a97.78,97.78,0,0,0,.8-10.19c.08-6.59,1.27-13,1.36-19.6.14-10.55,1.19-21.06,1.06-31.63-.11-8.43-.89-16.81-1.25-25.21-.3-7.09-1.07-14-4.29-20.66-1.59-3.26-3.57-3.54-5.81-2.16-2.41,1.5-5,1.86-7.52,2.79-8.92,3.33-17.86,6.28-25.9,12.07-9.31,6.7-18.32,13.7-27,21.16-3.95,3.4-8.09,6.68-11.55,10.54-5.09,5.67-9.65,11.81-14.44,17.75-.27-.3-.57-.4-.79,0-.06.1.15.36.24.54C515.78,121.06,511,124.79,508,130.12Zm-372.59,7.42a122.73,122.73,0,0,0,1.94,15.28,199.91,199.91,0,0,0,6.48,23l4,12.35a2.46,2.46,0,0,0,4,1.89c7.06-2.89,14.3-6.08,21.29-9.39,23.38-11.1,47.23-19.74,72.92-23.48l21.07-3.07c-8.93-13.53-21.87-23.8-33.34-35.25-23.14-23.11-41-51.85-67.95-70.41-5.24-3.6-10.91-6.84-17.16-8a5.22,5.22,0,0,0-3.18.15c-1.36.65-2,2.24-2.42,3.68-6.79,21.65-7.48,44.68-7.91,67.37C135,120.26,134.87,128.94,135.45,137.54Z"/><path class="cls-2" d="M77.59,300.37a25.85,25.85,0,0,0-9.26-1.23c-7,.09-81.27,6.77-60.11,22.16,2.94,2.15,6.77,2.51,10.4,2.8,18.07,1.42,36.93,2.48,53.66-4.52,3.14-1.31,6.26-3,8.4-5.62s3.12-6.47,1.63-9.53A8.33,8.33,0,0,0,77.59,300.37Z"/><path class="cls-2" d="M669.83,313a16.76,16.76,0,0,0,5.55,3.95c4,2,8.53,2,12.93,1.91l30.11-.26c4.71,0,9.64-.14,13.74-2.45s6.91-7.62,4.85-11.84c-2-4-7.08-5.19-11.54-5.76a246.57,246.57,0,0,0-31.56-1.94C686.32,296.58,662.66,304.34,669.83,313Z"/><path class="cls-2" d="M680.13,281.75c3.84.86,7.91-.3,11.71-1.46l36.06-11c4.76-1.44,10.1-3.41,11.92-8,2.18-5.53-2.43-11.88-8.1-13.63s-11.8-.17-17.41,1.79c-6.1,2.12-57.31,25.31-35,32.07Z"/><path class="cls-2" d="M5.24,269.51a29.94,29.94,0,0,0,2.58,2.72c3.77,3.53,8.88,5.19,13.83,6.66,17.4,5.19,35.46,9.43,53.55,7.92,4.82-.4,10.33-1.72,12.44-6.07,1.87-3.86.1-8.7-3-11.64s-7.32-4.42-11.37-5.82C62,259.4,50.68,255.5,38.91,253.79,29.7,252.46-8,253.44,5.24,269.51Z"/><path class="cls-2" d="M631.61,344.94v0h0Z"/><path class="cls-2" d="M248.15,236.38s0,0,0,0h0Z"/><path class="cls-2" d="M252.88,284.17A33,33,0,0,0,267.51,288a20.52,20.52,0,0,0,7.63-1.12,20.26,20.26,0,0,0,8.71-7c6.54-8.64,8.14-20.89,3.64-30.75s-15.05-16.77-25.89-16.51c-23.53.57-32.65,27-18.35,43.81A32.64,32.64,0,0,0,252.88,284.17Z"/><path class="cls-2" d="M490.69,281.57a21.4,21.4,0,0,0,10.31.7,29,29,0,0,0,20.64-14.73c4.09-7.65,4.37-17.4.12-25S508.62,230.09,500,231.15c-15,1.85-21.64,20.92-20.55,34,.49,5.76,3.06,11.62,7.91,14.77A15.2,15.2,0,0,0,490.69,281.57Z"/><path class="cls-3" d="M430.44,412.57c-.77-4.34-2-8.9-5.27-11.86-4.77-4.33-12.06-3.79-18.45-3-6.68.83-13.89,1.92-18.61,6.73s-4.47,14.63,1.89,16.82c5.18,1.78,12.85-1.49,15.27,3.44a8.51,8.51,0,0,1,.51,4.26c-.47,8.58-3,18.77-11.19,21.47-6,2-12.71-1.29-16.51-6.3s-5.22-11.39-6.14-17.61a144.88,144.88,0,0,1,.52-45.72c1.14-6.63,2.8-13.32,6.45-19s9.63-10.13,16.34-10.52c7.26-.43,13.91,3.79,21,5.28a6.81,6.81,0,0,0,3.9-.05c3.42-1.38,3.09-6.38,1.55-9.73-6.21-13.48-22.27-21-37-19-36.91,5.22-45.47,52.5-43.5,82.87,1.12,17.24,6.3,34.87,18.14,47.46s31.28,18.89,47.15,12.05c9.84-4.24,17.32-13,21.29-23,.19-.49.38-1,.55-1.46C432.21,435.25,432.37,423.63,430.44,412.57Z"/><path class="cls-3" d="M104.66,395.91c-1.67-3.13-2.41-6.72-4.3-10.1-3.74-6.64-9.71-9.92-15.53-13.71a10.36,10.36,0,0,0-3.15-1.16c-12.4-3-25.12-3.05-37.73-4.11-10.39-.89-20.07,3.43-30.13,5.07-3.9.64-7.28,5-7.07,7.75.19,2.61.54,5.2.89,7.79,1.56,11.6,3.26,23.17,4,34.86.39,6.59.76,13.18,1.05,19.77.66,15.31,1.39,30.62,1.85,45.94.26,8.45.05,16.91.05,25.37H14c0,3,.16,6-.05,9-.23,3.16,1.1,4.26,4.13,4.17,5.65-.16,11-2.23,16.58-2.72a37.86,37.86,0,0,0,8.78-1.7c6.15-2.06,11.78-5.19,17.61-7.9,14-6.54,26.4-15.34,34.87-28.46A80.25,80.25,0,0,0,107.49,457c1.53-8,1.49-15.9,2.1-23.85.39-5.15-1-10.09-1.52-15.11C107.35,410.56,108.46,403.09,104.66,395.91ZM84.2,456.18C79,471.23,67.26,483.64,53.15,491.06c-3.59,1.89-9.2,2.8-10.7-1a7.78,7.78,0,0,1-.32-3.08,403.77,403.77,0,0,0-4.88-74.48c-.66-4.15-4-16.36-.51-19.75,2.89-2.79,12.15-.77,15.57,0a44.23,44.23,0,0,1,26.38,17.68,46.91,46.91,0,0,1,7.12,16.25A53.52,53.52,0,0,1,84.2,456.18Z"/><path class="cls-3" d="M219.12,370.13a70.37,70.37,0,0,0-15.92-18.91c-3.55-3-7.48-6.12-12.5-6.79-1.84-2-4.45-1.26-6.68-1.82-10.54-2.64-19.33,1.41-27.19,7.91-7.18,5.94-12,13.77-16.68,21.74A105.31,105.31,0,0,0,133.69,386a2.11,2.11,0,0,0-.7,2.07,11.25,11.25,0,0,0-1.58,4.34c-1.64,3.72-3.55,7.35-4.88,11.18-6.33,18.25-2.65,36.19,3,53.66,2.36,7.32,4.82,14.9,9,21.63,2.33,3.79,3.6,8.9,7.73,10.73,8.27,3.68,17,6.16,26.29,5.79a15.34,15.34,0,0,0,5.44-.46l2-.12c5.59-.76,11.29-.87,16.61-3.11,2.66-1.12,3.83-3.79,5.89-5.57,8.19-7.07,14.58-15.5,18.29-25.79a2.88,2.88,0,0,0,.66-2.27c1.35-1.5,1.64-3.42,2.12-5.27,8.76-17.21,12-35.18,7-54.11C227.8,388.75,225,378.82,219.12,370.13ZM201.4,427.2c-.87,8.82-3.71,17.74-9.76,24.22s-15.74,10-24.12,7.1c-10.94-3.75-16.11-16.39-17.21-27.9-1.5-15.6,3-51.75,23.7-54.92,8.18-1.26,15.23,5.84,19.29,13.05a66,66,0,0,1,8.4,32.72Q201.67,424.34,201.4,427.2Z"/><path class="cls-3" d="M525.78,439.75c-13-24.45-14.29-53.37-23.73-79.41-2.3-6.34-5.51-13-11.52-16-16.69-8.45-24.15,26.27-28.2,36.36a574.41,574.41,0,0,0-20.81,61.67c-1.41,5.13-2.77,10.47-1.9,15.72s4.57,10.4,9.81,11.27c8,1.32,14-7.25,16-15.08.55-2.23,1-4.61,2.55-6.32,1.88-2.1,4.91-2.65,7.7-3.08,8.42-1.3,18-2.29,24.55,3.14,4.77,4,6.62,10.31,9.3,15.9s7.46,11.25,13.65,11a10.5,10.5,0,0,0,8.32-5.22A16.7,16.7,0,0,0,534,459.27C533.28,452.19,529.12,446,525.78,439.75ZM492.4,428c-5.18-.67-10.1-2.72-15.41-2.84-2.26-.05-3.37-1.48-3.11-3.75,1-9.08,1.52-18.25,4.55-27,1.57-4.53,4-4.74,8.43-.79h0c1.94,4.28,3.83,8.59,5.81,12.85,1.69,3.65,2.93,7.36,2.51,11.48a13.5,13.5,0,0,0,.74,6.2C497,427.2,495.75,428.4,492.4,428Z"/><path class="cls-3" d="M302.53,391.67c.14-6.14,1-12.24.59-18.45a101.46,101.46,0,0,1-.6-10.17c.17-5-.67-9.87-.35-14.83a13.05,13.05,0,0,0-2.73-8.4c-4.05-5.64-8-6.18-12.15-1.52a15.72,15.72,0,0,0-3.7,6.78c-2.06,8.25-1.58,16.67-.62,24.92,1.23,10.54,1.75,21.09,2.25,31.66a10.17,10.17,0,0,1-.3,3c-.48,1.82-1.79,2.35-2.95.87-2-2.53-4.22-5.12-5.23-8.08A79.26,79.26,0,0,0,260.57,370c-2-2.2-3.5-4.86-6.12-6.5-3.76-2.36-11.08-1.24-11.85,2.14-.84,3.74-1.87,7.44-2,11.37-.22,5.71-.15,11.45-.56,17.13-.61,8.55-1.15,17.09-1.35,25.65-.23,9.83-.06,19.67-.06,29.51,1,6.71.82,13.44,2.54,20.06.56,2.14,1.4,3.34,3.59,3.57a15,15,0,0,0,14-5.56c5.39-6.65,5.2-14.77,5.4-22.74,0-1.61,0-3.24,0-4.85,0-.62.12-1.38.94-1.33a1.88,1.88,0,0,1,1.09.84c3.5,5.11,7.8,9.71,10.11,15.57A39.76,39.76,0,0,0,284,467.1c5.06,5.55,14.87,4.58,18.24-2.17,1.77-3.55,3.36-7.42,3.27-11.42-.26-11.33-.25-22.74-1.62-33.95A194.22,194.22,0,0,1,302.53,391.67Z"/><path class="cls-3" d="M710.63,365.81a52.91,52.91,0,0,0-46.52-7.21c-32.76,10.77-41.65,48.64-40.37,79.2.9,21.24,8.33,44.2,26.6,55.08,9.19,5.47,20.08,7.25,30.71,8.47,9.56,1.09,19.65,1.75,28.38-2.29,7.38-3.42,13-9.86,17.21-16.79a88,88,0,0,0,12-35.9,113.66,113.66,0,0,0-.43-28.55C735.38,397.85,727,377.56,710.63,365.81Zm-8.34,88.94A26.13,26.13,0,0,1,693,467.47c-6.5,4.7-14.25,6.26-21.21,4.08-6-1.9-10.89-7.39-14.74-13.05-4.43-6.53-4.5-13.94-5.21-21.36-1-10.16,1.91-19.59,4.62-29.09a30.16,30.16,0,0,1,14.49-18.24c4.58-2.65,9.54-1.36,14,.89a33.41,33.41,0,0,1,15.58,15.52c2.23,4.8,5.2,9.47,5.54,15.29.22,3.79,2.61,7.46,1.76,11.6C709.23,441.12,704.86,447.71,702.29,454.75Z"/><path class="cls-3" d="M629.18,351.93c-2.88-4.7-9-5.93-14.52-6.71l-65.4-9.36c-5-.72-10.13-1.43-15.11-.51-13.8,2.54-17.45,19-4.53,25.93,6.1,3.27,13.35,3.25,20.27,3.27,2.83,0,6.29.42,7.42,3a7.39,7.39,0,0,1,.45,2.52c1.65,30.79-4.56,61.7-1.75,92.41.49,5.38,1.33,10.95,4.32,15.45s8.67,7.65,13.85,6.11c6.88-2.05,9.24-10.49,10.06-17.63,3.44-29.88-.55-60.2,2.15-90.16.22-2.45.64-5.19,2.6-6.68s4.43-1.18,6.72-.81c2.85.45,5.74,1.05,8.63,1.51,5.07.81,10.14,1.23,15-.17C627,367.92,633.34,358.74,629.18,351.93Z"/><path class="cls-2" d="M111.56,391a43.15,43.15,0,0,0-8.85-15.5C91.39,363.18,73.17,360.6,56.49,360c-14.65-.54-33.32-1-46.69,6.09-15.53,8.26-8.18,27.53-7.28,43.69q3.27,58.83,6.53,117.68a5.84,5.84,0,0,0,.91,3.37c.95,1.19,2.64,1.42,4.16,1.54,43.69,3.22,87.49-27.81,98.94-70.1,4.45-16.41,4.42-33.74,2.62-50.65A95.78,95.78,0,0,0,111.56,391Zm-2,42.16c-.61,7.95-.57,15.82-2.1,23.85a80.25,80.25,0,0,1-11.57,28.78c-8.47,13.12-20.84,21.92-34.87,28.46-5.83,2.71-11.46,5.84-17.61,7.9a37.86,37.86,0,0,1-8.78,1.7c-5.6.49-10.93,2.56-16.58,2.72-3,.09-4.36-1-4.13-4.17.21-3,.05-6,.05-9h.56c0-8.46.21-16.92-.05-25.37-.46-15.32-1.19-30.63-1.85-45.94-.29-6.59-.66-13.18-1.05-19.77-.71-11.69-2.41-23.26-4-34.86-.35-2.59-.7-5.18-.89-7.79-.21-2.8,3.17-7.11,7.07-7.75,10.06-1.64,19.74-6,30.13-5.07,12.61,1.06,25.33,1.15,37.73,4.11a10.36,10.36,0,0,1,3.15,1.16c5.82,3.79,11.79,7.07,15.53,13.71,1.89,3.38,2.63,7,4.3,10.1,3.8,7.18,2.69,14.65,3.41,22.1C108.56,423,110,428,109.59,433.12Z"/><path class="cls-2" d="M747.92,416.94a101.47,101.47,0,0,0-9-28.41c-10.5-20.74-31.39-36.68-54.57-38.29-47.89-3.34-64,45.89-65.18,84.46-.56,18.05,2,37.44,14,51,11.69,13.29,30,18.38,47.49,21.23,8.51,1.38,17.31,2.38,25.71.39a46.11,46.11,0,0,0,19.36-10.45c19.41-16.93,25.83-44.49,23.49-70.44C748.88,423.23,748.46,420.06,747.92,416.94Zm-9.31,29.43a88,88,0,0,1-12,35.9c-4.25,6.93-9.83,13.37-17.21,16.79-8.73,4-18.82,3.38-28.38,2.29-10.63-1.22-21.52-3-30.71-8.47C632.07,482,624.64,459,623.74,437.8c-1.28-30.56,7.61-68.43,40.37-79.2a52.91,52.91,0,0,1,46.52,7.21c16.4,11.75,24.75,32,27.55,52A113.66,113.66,0,0,1,738.61,446.37Z"/><path class="cls-2" d="M310.23,437.43q-.64-38.62-1.3-77.25c-.12-7.08-.32-14.48-3.72-20.69s-11.07-10.71-17.65-8.09c-6.74,2.68-9.09,10.93-9.93,18.13a126,126,0,0,0,2.44,43.32,118.4,118.4,0,0,0-20.24-29.54c-4.21-4.49-10-9-15.92-7.25s-8.34,8.53-8.71,14.55.52,12.34-1.89,17.86c-9.24-24.81-28.22-50.1-54.68-51.08-28.67-1.06-45.48,29.52-53.78,52.94-10.42,29.36-7.39,63.55,9,90.16,4.1,6.65,9.06,12.94,15.56,17.25,15.81,10.49,38,6.87,53.2-4.53s24.41-29,30.89-46.85c-1.21,12.5.44,29.18,12.73,31.75,11.36,2.37,19.69-10.14,24.48-20.71,3.23,6.47,7.68,12.67,14.07,16.06s15,3.29,20.21-1.76c5.35-5.21,5.58-13.59,5.45-21.06Q310.35,444,310.23,437.43Zm-86.8,15.37c-.48,1.85-.77,3.77-2.12,5.27a2.88,2.88,0,0,1-.66,2.27c-3.71,10.29-10.1,18.72-18.29,25.79-2.06,1.78-3.23,4.45-5.89,5.57-5.32,2.24-11,2.35-16.61,3.11l-2,.12a15.34,15.34,0,0,1-5.44.46c-9.27.37-18-2.11-26.29-5.79-4.13-1.83-5.4-6.94-7.73-10.73-4.14-6.73-6.6-14.31-9-21.63-5.61-17.47-9.29-35.41-3-53.66,1.33-3.83,3.24-7.46,4.88-11.18a11.25,11.25,0,0,1,1.58-4.34,2.11,2.11,0,0,1,.7-2.07,105.31,105.31,0,0,1,6.46-13.73c4.66-8,9.5-15.8,16.68-21.74,7.86-6.5,16.65-10.55,27.19-7.91,2.23.56,4.84-.17,6.68,1.82,5,.67,9,3.78,12.5,6.79a70.37,70.37,0,0,1,15.92,18.91c5.86,8.69,8.68,18.62,11.31,28.56C235.45,417.62,232.19,435.59,223.43,452.8Zm78.8,12.13c-3.37,6.75-13.18,7.72-18.24,2.17a39.76,39.76,0,0,1-7.71-12.26c-2.31-5.86-6.61-10.46-10.11-15.57a1.88,1.88,0,0,0-1.09-.84c-.82-.05-.93.71-.94,1.33,0,1.61,0,3.24,0,4.85-.2,8,0,16.09-5.4,22.74a15,15,0,0,1-14,5.56c-2.19-.23-3-1.43-3.59-3.57-1.72-6.62-1.53-13.35-2.54-20.06,0-9.84-.17-19.68.06-29.51.2-8.56.74-17.1,1.35-25.65.41-5.68.34-11.42.56-17.13.15-3.93,1.18-7.63,2-11.37.77-3.38,8.09-4.5,11.85-2.14,2.62,1.64,4.14,4.3,6.12,6.5a79.26,79.26,0,0,1,16.17,27.43c1,3,3.26,5.55,5.23,8.08,1.16,1.48,2.47.95,2.95-.87a10.17,10.17,0,0,0,.3-3c-.5-10.57-1-21.12-2.25-31.66-1-8.25-1.44-16.67.62-24.92a15.72,15.72,0,0,1,3.7-6.78c4.14-4.66,8.1-4.12,12.15,1.52a13.05,13.05,0,0,1,2.73,8.4c-.32,5,.52,9.86.35,14.83a101.46,101.46,0,0,0,.6,10.17c.44,6.21-.45,12.31-.59,18.45a194.22,194.22,0,0,0,1.35,27.89c1.37,11.21,1.36,22.62,1.62,33.95C305.59,457.51,304,461.38,302.23,464.93Z"/><path class="cls-2" d="M425.85,398a19.7,19.7,0,0,0-6.73-4.4c-5.45-2.15-11.57-1.67-17.35-.72s-11.4,2.34-16,5.71-7.93,9.08-7,14.73c1.33,8.16,10.33,12.64,18.48,14,1.26.21,2.67.47,3.41,1.51a4.6,4.6,0,0,1,.31,3.58c-1.24,6.25-5.49,13.65-11.77,12.54-4.32-.77-6.79-5.28-8.33-9.39a90.05,90.05,0,0,1-.73-60.51c3.2-9.22,10.64-19.36,20.25-17.58,8,1.48,14.91,11.12,22.34,7.72,5.24-2.39,5.85-9.71,4.27-15.25-5-17.57-24.48-28.88-42.65-27-47.3,5-56.7,68.11-46,104.77,5.17,17.74,15.68,34.67,31.82,43.69s38.3,8.29,51.46-4.69c10.25-10.12,13.49-25.43,13.57-39.83C435.21,416.6,432.82,404.86,425.85,398Zm2,49.29c-4,10-11.45,18.72-21.29,23-15.87,6.84-35.31.54-47.15-12.05s-17-30.22-18.14-47.46c-2-30.37,6.59-77.65,43.5-82.87,14.69-2.08,30.75,5.48,37,19,1.54,3.35,1.87,8.35-1.55,9.73a6.81,6.81,0,0,1-3.9.05c-7.12-1.49-13.77-5.71-21-5.28-6.71.39-12.68,4.88-16.34,10.52s-5.31,12.33-6.45,19a144.88,144.88,0,0,0-.52,45.72c.92,6.22,2.35,12.6,6.14,17.61s10.54,8.28,16.51,6.3c8.16-2.7,10.72-12.89,11.19-21.47a8.51,8.51,0,0,0-.51-4.26c-2.42-4.93-10.09-1.66-15.27-3.44-6.36-2.19-6.6-12-1.89-16.82s11.93-5.9,18.61-6.73c6.39-.79,13.68-1.33,18.45,3,3.27,3,4.5,7.52,5.27,11.86,1.93,11.06,1.77,22.68-2,33.25C428.23,446.31,428,446.79,427.85,447.28Z"/><path class="cls-2" d="M633.05,365.89c3.78-6.94,2.58-16.66-3.71-21.44-3.85-2.92-8.86-3.71-13.63-4.41l-72.36-10.58c-4.69-.69-9.51-1.37-14.16-.4-15.21,3.2-15.6,23.27-6,32.56,6.28,6.06,15.25,8.54,23.95,9.19,2,.14,4.27.35,5.42,2,.84,1.19.79,2.77.71,4.23q-2,33.54-3.94,67.07c-.63,10.74-1.15,22.06,3.74,31.64s17.2,16.26,26.69,11.2c9.28-4.95,10.88-17.36,11.21-27.87q1.32-42.65-.45-85.32c7.31,3,15.24,5,23.09,4.13a26.93,26.93,0,0,0,15.85-7.28A20,20,0,0,0,633.05,365.89Zm-13.68,4.23c-4.89,1.4-10,1-15,.17-2.89-.46-5.78-1.06-8.63-1.51-2.29-.37-4.87-.59-6.72.81s-2.38,4.23-2.6,6.68c-2.7,30,1.29,60.28-2.15,90.16-.82,7.14-3.18,15.58-10.06,17.63-5.18,1.54-10.87-1.6-13.85-6.11S556.5,467.88,556,462.5c-2.81-30.71,3.4-61.62,1.75-92.41a7.39,7.39,0,0,0-.45-2.52c-1.13-2.6-4.59-3-7.42-3-6.92,0-14.17,0-20.27-3.27-12.92-6.93-9.27-23.39,4.53-25.93,5-.92,10.1-.21,15.11.51l65.4,9.36c5.47.78,11.64,2,14.52,6.71C633.34,358.74,627,367.92,619.37,370.12Z"/><path class="cls-2" d="M529.72,438.3q-1.59-3.37-3-6.83c-10.15-25.19-12.85-53.19-23.87-78.12-2.42-5.47-5.38-11-10.16-14.55S480.91,334,476,337.34c-10.84,7.36-17.17,35.82-21.58,47.64a432.72,432.72,0,0,0-17.86,61.31c-1.22,5.73-2.29,11.88-.11,17.32a16.81,16.81,0,0,0,15.06,10.12,19.14,19.14,0,0,0,16.09-8.91c2-3.12,3.1-6.77,5.27-9.76a17.09,17.09,0,0,1,21.72-4.54c6.52,3.83,9.55,11.43,13.08,18.11s9.14,13.58,16.69,13.6c8.92,0,15-10.06,14.52-19S533.54,446.37,529.72,438.3Zm1.75,31.39a10.5,10.5,0,0,1-8.32,5.22c-6.19.25-11-5.41-13.65-11S505,452,500.2,448c-6.56-5.43-16.13-4.44-24.55-3.14-2.79.43-5.82,1-7.7,3.08-1.54,1.71-2,4.09-2.55,6.32-1.94,7.83-8,16.4-16,15.08-5.24-.87-8.94-6-9.81-11.27s.49-10.59,1.9-15.72a574.41,574.41,0,0,1,20.81-61.67c4.05-10.09,11.51-44.81,28.2-36.36,6,3,9.22,9.67,11.52,16,9.44,26,10.73,55,23.73,79.41,3.34,6.28,7.5,12.44,8.22,19.52A16.7,16.7,0,0,1,531.47,469.69Z"/><path class="cls-2" d="M78.69,410.45a44.23,44.23,0,0,0-26.38-17.68c-3.42-.76-12.68-2.78-15.57,0-3.51,3.39-.15,15.6.51,19.75A403.77,403.77,0,0,1,42.13,487a7.78,7.78,0,0,0,.32,3.08c1.5,3.77,7.11,2.86,10.7,1,14.11-7.42,25.8-19.83,31.05-34.88a53.52,53.52,0,0,0,1.61-29.48A46.91,46.91,0,0,0,78.69,410.45Zm-2,43.18c-.29.75-.59,1.5-.91,2.24a66.44,66.44,0,0,1-18.9,25.2,3.25,3.25,0,0,1-2.52,1c-1.34-.27-1.76-1.95-1.91-3.31Q49.74,453.1,47,427.44c-.48-4.49-5.18-22.53-2.62-25.93,3.13-4.16,13.6,1.81,16.69,4.9a52.41,52.41,0,0,1,12,13.81c3,4.66,5.56,9.71,6.37,15.18C80.38,441.55,79,447.83,76.74,453.63Z"/><path class="cls-2" d="M706,421.51c-.34-5.82-3.31-10.49-5.54-15.29a33.41,33.41,0,0,0-15.58-15.52c-4.44-2.25-9.4-3.54-14-.89a30.16,30.16,0,0,0-14.49,18.24c-2.71,9.5-5.59,18.93-4.62,29.09.71,7.42.78,14.83,5.21,21.36,3.85,5.66,8.69,11.15,14.74,13.05,7,2.18,14.71.62,21.21-4.08a26.13,26.13,0,0,0,9.31-12.72c2.57-7,6.94-13.63,5.5-21.64C708.64,429,706.25,425.3,706,421.51Zm-5.4,8.59a82.58,82.58,0,0,1-.93,8.9c-1.43,9.25-4.74,19.44-13.15,23.53-8,3.87-18.18.39-23.71-6.53s-6.93-16.42-5.73-25.2c1.41-10.38,10.91-47.15,27.38-33C694.56,406.5,701.21,416.41,700.63,430.1Z"/><path class="cls-2" d="M174,375.7c-20.67,3.17-25.2,39.32-23.7,54.92,1.1,11.51,6.27,24.15,17.21,27.9,8.38,2.87,18.06-.63,24.12-7.1s8.89-15.4,9.76-24.22q.27-2.86.3-5.73a66,66,0,0,0-8.4-32.72C189.24,381.54,182.19,374.44,174,375.7Zm18.86,62.93c-.18.44-.38.89-.58,1.33-3.7,8.14-11.22,16-20.09,14.91-4.86-.62-9.09-4-11.66-8.13s-3.7-9.08-4.21-13.95c-1.81-17,2.86-42.86,20.76-49.85a7.48,7.48,0,0,1,4.3-.65c1.73.39,3,1.8,4.15,3.19A53.7,53.7,0,0,1,192.87,438.63Z"/><path class="cls-2" d="M495.17,417.93c.42-4.12-.82-7.83-2.51-11.48-2-4.26-3.87-8.57-5.81-12.85h0c-4.46-4-6.86-3.74-8.43.79-3,8.74-3.54,17.91-4.55,27-.26,2.27.85,3.7,3.11,3.75,5.31.12,10.23,2.17,15.41,2.84,3.35.43,4.64-.77,3.51-3.84A13.5,13.5,0,0,1,495.17,417.93Zm-6.5,5.37-.37-.07c-10.44-1.75-9-.58-7.48-10.52.46-3.06.4-6.2.62-9.3.05-.72.17-1.52,1-1.85.58-.24.93.2,1.24.58,4.65,5.52,6.45,12.17,7.5,18.95C491.18,423,490.56,423.9,488.67,423.3Z"/></svg>